<?xml version="1.0" encoding="UTF-8" standalone="no"?>
<!DOCTYPE svg PUBLIC "-//W3C//DTD SVG 1.1//EN"
 "http://www.w3.org/Graphics/SVG/1.1/DTD/svg11.dtd">
<!-- Generated by graphviz version 2.30.1 (20130214.1330)
 -->
<!-- Title: G Pages: 1 -->
<svg width="336pt" height="96pt"
 viewBox="0.00 0.00 336.00 96.00" xmlns="http://www.w3.org/2000/svg" xmlns:xlink="http://www.w3.org/1999/xlink">
<g id="graph0" class="graph" transform="scale(1 1) rotate(0) translate(4 92)">
<title>G</title>
<polygon fill="white" stroke="white" points="-4,5 -4,-92 333,-92 333,5 -4,5"/>
<g id="clust1" class="cluster"><title>cluster_global</title>
<path fill="none" stroke="gray" d="M238,-8C238,-8 308,-8 308,-8 314,-8 320,-14 320,-20 320,-20 320,-68 320,-68 320,-74 314,-80 308,-80 308,-80 238,-80 238,-80 232,-80 226,-74 226,-68 226,-68 226,-20 226,-20 226,-14 232,-8 238,-8"/>
<text text-anchor="middle" x="273" y="-67.2" font-family="Times New Roman,serif" font-size="11.00" fill="gray">global</text>
</g>
<!-- \\BasicTest -->
<g id="node1" class="node"><title>\\BasicTest</title>
<g id="a_node1"><a xlink:href="SchemaCreator.BasicTest.html" xlink:title="BasicTest" target="_parent">
<polygon fill="none" stroke="black" points="311.5,-52 234.5,-52 234.5,-16 311.5,-16 311.5,-52"/>
<text text-anchor="middle" x="273" y="-31.2" font-family="Courier,monospace" font-size="11.00">BasicTest</text>
</a>
</g>
</g>
<!-- \\WP_UnitTestCase -->
<g id="node2" class="node"><title>\\WP_UnitTestCase</title>
<ellipse fill="none" stroke="black" cx="81" cy="-34" rx="81.4863" ry="18"/>
<text text-anchor="middle" x="81" y="-30.3" font-family="Times New Roman,serif" font-size="14.00" fill="gray">\WP_UnitTestCase</text>
</g>
<!-- \\BasicTest&#45;&gt;\\WP_UnitTestCase -->
<g id="edge1" class="edge"><title>\\BasicTest&#45;&gt;\\WP_UnitTestCase</title>
<path fill="none" stroke="black" d="M234.462,-34C216.549,-34 194.27,-34 172.325,-34"/>
<polygon fill="none" stroke="black" points="172.282,-30.5001 162.282,-34 172.282,-37.5001 172.282,-30.5001"/>
</g>
</g>
</svg>
