<?xml version="1.0" encoding="UTF-8" standalone="no"?>
<!DOCTYPE svg PUBLIC "-//W3C//DTD SVG 1.1//EN"
 "http://www.w3.org/Graphics/SVG/1.1/DTD/svg11.dtd">
<!-- Generated by graphviz version 2.30.1 (20130214.1330)
 -->
<!-- Title: G Pages: 1 -->
<svg width="350pt" height="150pt"
 viewBox="0.00 0.00 350.00 150.00" xmlns="http://www.w3.org/2000/svg" xmlns:xlink="http://www.w3.org/1999/xlink">
<g id="graph0" class="graph" transform="scale(1 1) rotate(0) translate(4 146)">
<title>G</title>
<polygon fill="white" stroke="white" points="-4,5 -4,-146 347,-146 347,5 -4,5"/>
<g id="clust1" class="cluster"><title>cluster_global</title>
<path fill="none" stroke="gray" d="M238,-8C238,-8 322,-8 322,-8 328,-8 334,-14 334,-20 334,-20 334,-122 334,-122 334,-128 328,-134 322,-134 322,-134 238,-134 238,-134 232,-134 226,-128 226,-122 226,-122 226,-20 226,-20 226,-14 232,-8 238,-8"/>
<text text-anchor="middle" x="280" y="-121.2" font-family="Times New Roman,serif" font-size="11.00" fill="gray">global</text>
</g>
<!-- \\ravenSchema -->
<g id="node1" class="node"><title>\\ravenSchema</title>
<g id="a_node1"><a xlink:href="schema-creator.html" xlink:title="ravenSchema" target="_parent">
<polygon fill="none" stroke="black" points="325.5,-106 234.5,-106 234.5,-70 325.5,-70 325.5,-106"/>
<text text-anchor="middle" x="280" y="-85.2" font-family="Courier,monospace" font-size="11.00">ravenSchema</text>
</a>
</g>
</g>
<!-- \\BasicTest -->
<g id="node2" class="node"><title>\\BasicTest</title>
<g id="a_node2"><a xlink:href="tests.SchemaCreator.BasicTest.html" xlink:title="BasicTest" target="_parent">
<polygon fill="none" stroke="black" points="318.5,-52 241.5,-52 241.5,-16 318.5,-16 318.5,-52"/>
<text text-anchor="middle" x="280" y="-31.2" font-family="Courier,monospace" font-size="11.00">BasicTest</text>
</a>
</g>
</g>
<!-- \\WP_UnitTestCase -->
<g id="node3" class="node"><title>\\WP_UnitTestCase</title>
<ellipse fill="none" stroke="black" cx="81" cy="-34" rx="81.4863" ry="18"/>
<text text-anchor="middle" x="81" y="-30.3" font-family="Times New Roman,serif" font-size="14.00" fill="gray">\WP_UnitTestCase</text>
</g>
<!-- \\BasicTest&#45;&gt;\\WP_UnitTestCase -->
<g id="edge1" class="edge"><title>\\BasicTest&#45;&gt;\\WP_UnitTestCase</title>
<path fill="none" stroke="black" d="M241.482,-34C221.946,-34 197.133,-34 172.933,-34"/>
<polygon fill="none" stroke="black" points="172.616,-30.5001 162.616,-34 172.616,-37.5001 172.616,-30.5001"/>
</g>
</g>
</svg>
